<svg xmlns="http://www.w3.org/2000/svg" width="357" height="130" viewBox="0 0 357 130"><rect width="100%" height="100%" fill="#fff"/><g fill="#000"><rect x="36" y="10" width="3" height="90"/><rect x="42" y="10" width="3" height="90"/><rect x="48" y="10" width="3" height="90"/><rect x="51" y="10" width="3" height="90"/><rect x="54" y="10" width="3" height="90"/><rect x="60" y="10" width="3" height="90"/><rect x="63" y="10" width="3" height="90"/><rect x="69" y="10" width="3" height="90"/><rect x="72" y="10" width="3" height="90"/><rect x="75" y="10" width="3" height="90"/><rect x="78" y="10" width="3" height="90"/><rect x="84" y="10" width="3" height="90"/><rect x="90" y="10" width="3" height="90"/><rect x="93" y="10" width="3" height="90"/><rect x="96" y="10" width="3" height="90"/><rect x="102" y="10" width="3" height="90"/><rect x="105" y="10" width="3" height="90"/><rect x="111" y="10" width="3" height="90"/><rect x="117" y="10" width="3" height="90"/><rect x="120" y="10" width="3" height="90"/><rect x="123" y="10" width="3" height="90"/><rect x="126" y="10" width="3" height="90"/><rect x="135" y="10" width="3" height="90"/><rect x="144" y="10" width="3" height="90"/><rect x="147" y="10" width="3" height="90"/><rect x="153" y="10" width="3" height="90"/><rect x="156" y="10" width="3" height="90"/><rect x="162" y="10" width="3" height="90"/><rect x="165" y="10" width="3" height="90"/><rect x="168" y="10" width="3" height="90"/><rect x="174" y="10" width="3" height="90"/><rect x="180" y="10" width="3" height="90"/><rect x="186" y="10" width="3" height="90"/><rect x="189" y="10" width="3" height="90"/><rect x="192" y="10" width="3" height="90"/><rect x="201" y="10" width="3" height="90"/><rect x="207" y="10" width="3" height="90"/><rect x="213" y="10" width="3" height="90"/><rect x="228" y="10" width="3" height="90"/><rect x="234" y="10" width="3" height="90"/><rect x="237" y="10" width="3" height="90"/><rect x="240" y="10" width="3" height="90"/><rect x="249" y="10" width="3" height="90"/><rect x="258" y="10" width="3" height="90"/><rect x="261" y="10" width="3" height="90"/><rect x="264" y="10" width="3" height="90"/><rect x="270" y="10" width="3" height="90"/><rect x="273" y="10" width="3" height="90"/><rect x="276" y="10" width="3" height="90"/><rect x="285" y="10" width="3" height="90"/><rect x="291" y="10" width="3" height="90"/><rect x="294" y="10" width="3" height="90"/><rect x="300" y="10" width="3" height="90"/><rect x="303" y="10" width="3" height="90"/><rect x="312" y="10" width="3" height="90"/><rect x="318" y="10" width="3" height="90"/></g><text x="178.5" y="120" font-family="monospace" font-size="18" text-anchor="middle">737628064502</text></svg>